<svg width="23" height="23" viewBox="0 0 23 23" fill="none" xmlns="http://www.w3.org/2000/svg">
<path d="M11.5 13.4167C13.0878 13.4167 14.375 12.1295 14.375 10.5417C14.375 8.95384 13.0878 7.66666 11.5 7.66666C9.91218 7.66666 8.625 8.95384 8.625 10.5417C8.625 12.1295 9.91218 13.4167 11.5 13.4167Z" stroke="#141A41" stroke-width="1.4375" stroke-linecap="round" stroke-linejoin="round"/>
<path d="M16.9213 15.963L12.8551 20.0292C12.4957 20.3882 12.0085 20.5899 11.5005 20.5899C10.9925 20.5899 10.5052 20.3882 10.1459 20.0292L6.07869 15.963C5.00653 14.8907 4.27639 13.5247 3.9806 12.0375C3.68481 10.5503 3.83666 9.00882 4.41694 7.60794C4.99723 6.20707 5.97988 5.00972 7.24065 4.16731C8.50142 3.32491 9.98368 2.87527 11.5 2.87527C13.0163 2.87527 14.4985 3.32491 15.7593 4.16731C17.0201 5.00972 18.0027 6.20707 18.583 7.60794C19.1633 9.00882 19.3152 10.5503 19.0194 12.0375C18.7236 13.5247 17.9934 14.8907 16.9213 15.963V15.963Z" stroke="#141A41" stroke-width="1.4375" stroke-linecap="round" stroke-linejoin="round"/>
</svg>
